<?xml version="1.0"?>
<svg id="Layer_1" data-name="Layer 1" xmlns="http://www.w3.org/2000/svg" xmlns:xlink="http://www.w3.org/1999/xlink" viewBox="0 0 259.59 171.13" width="259.59" height="171.13"><defs><linearGradient id="Naamloos_verloop_543" x1="1276.53" y1="1212.58" x2="1226.89" y2="1152.18" gradientTransform="matrix(0.18, 0.98, -0.98, 0.18, 1212.96, -1260.49)" gradientUnits="userSpaceOnUse"><stop offset="0" stop-color="#1b1b1b"></stop><stop offset="1" stop-color="#4e4b48" stop-opacity="0"></stop></linearGradient><linearGradient id="linear-gradient" x1="206.44" y1="154.24" x2="263.22" y2="190.68" gradientUnits="userSpaceOnUse"><stop offset="0" stop-color="#fff"></stop><stop offset="0.25" stop-color="#fdfdfc"></stop><stop offset="0.4" stop-color="#f4f4f4"></stop><stop offset="0.53" stop-color="#e7e6e6"></stop><stop offset="0.64" stop-color="#d3d2d1"></stop><stop offset="0.74" stop-color="#bab8b7"></stop><stop offset="0.83" stop-color="#9a9997"></stop><stop offset="0.92" stop-color="#767471"></stop><stop offset="1" stop-color="#4d4a47"></stop></linearGradient></defs><title>sweet-mustard-logo</title><path d="M323.84,181.42c-24.68,29.6-76.24,27.29-76.24,27.29S236,158.41,260.72,128.8,337,101.51,337,101.51,348.52,151.82,323.84,181.42Z" transform="translate(-120.39 -101.47)" style="fill:#4d4a47"></path><path d="M247.2,141.11a58.74,58.74,0,0,0-7.92-12.41c-24.77-29.52-76.33-27-76.33-27s-11.4,50.35,13.38,79.87c17.39,20.73,48,25.69,64.68,26.8C238.05,188.27,236.54,161.81,247.2,141.11Z" transform="translate(-120.39 -101.47)" style="fill:#fff"></path><path d="M323.84,181.42c-24.68,29.6-76.24,27.29-76.24,27.29S236,158.41,260.72,128.8,337,101.51,337,101.51,348.52,151.82,323.84,181.42Z" transform="translate(-120.39 -101.47)" style="fill:url(#Naamloos_verloop_543)"></path><path d="M247.2,141.11a58.74,58.74,0,0,0-7.92-12.41c-24.77-29.52-76.33-27-76.33-27s-11.4,50.35,13.38,79.87c17.39,20.73,48,25.69,64.68,26.8C238.05,188.27,236.54,161.81,247.2,141.11Z" transform="translate(-120.39 -101.47)" style="fill:url(#linear-gradient)"></path><path d="M133.26,258.58a6.16,6.16,0,0,0-4.5-1.62c-2.14,0-3.32.66-3.32,1.81s1.07,1.84,3.4,2c3.42.22,7.77,1,7.77,5.82,0,3.21-2.61,6-7.81,6-2.88,0-5.75-.48-8.41-3.24l2.21-3.21a10,10,0,0,0,6.27,2.55c1.7,0,3.28-.85,3.28-2.18s-1-1.77-3.61-1.92c-3.43-.25-7.52-1.51-7.52-5.64s4.35-5.67,7.67-5.67a9.79,9.79,0,0,1,7.08,2.39Z" transform="translate(-120.39 -101.47)" style="fill:#4d4a47"></path><path d="M156.19,253.71l4,13.68,4.17-13.68h5L163,272h-5.23l-1.88-5.38-1.62-6.08-1.63,6.08L150.73,272H145.5l-6.38-18.29h5l4.17,13.68,3.95-13.68Z" transform="translate(-120.39 -101.47)" style="fill:#4d4a47"></path><path d="M177,264.44c.29,2.25,2.25,3.87,5.42,3.87a7.49,7.49,0,0,0,4.86-1.69l2.88,2.84a11.18,11.18,0,0,1-7.82,3c-6.27,0-10-3.87-10-9.7,0-5.53,3.76-9.51,9.66-9.51,6.08,0,9.88,3.76,9.18,11.24Zm9.88-3.72c-.3-2.36-2.14-3.54-4.72-3.54a4.9,4.9,0,0,0-5.09,3.54Z" transform="translate(-120.39 -101.47)" style="fill:#4d4a47"></path><path d="M198.44,264.44c.3,2.25,2.25,3.87,5.42,3.87a7.52,7.52,0,0,0,4.87-1.69l2.87,2.84a11.15,11.15,0,0,1-7.81,3c-6.27,0-10-3.87-10-9.7,0-5.53,3.76-9.51,9.65-9.51,6.09,0,9.88,3.76,9.18,11.24Zm9.88-3.72c-.29-2.36-2.14-3.54-4.72-3.54a4.89,4.89,0,0,0-5.08,3.54Z" transform="translate(-120.39 -101.47)" style="fill:#4d4a47"></path><path d="M221.67,248.63v5.16h5v3.87h-5.05v7.85c0,1.74,1,2.58,2.36,2.58a5.21,5.21,0,0,0,2.18-.55l1.25,3.83a10,10,0,0,1-3.73.78c-3.94.14-6.52-2.1-6.52-6.64v-7.85h-3.39v-3.87h3.39v-4.68Z" transform="translate(-120.39 -101.47)" style="fill:#4d4a47"></path><path d="M265,271.93V261a5.63,5.63,0,0,0-5.82-6,5.75,5.75,0,0,0-5.86,6.08v10.81h-1.81V261.12a5.85,5.85,0,1,0-11.69,0v10.81H238V253.71h1.69l0,3a6.4,6.4,0,0,1,5.93-3.39c2.77,0,5.68,1.25,6.75,4.49a7,7,0,0,1,6.75-4.49,7.32,7.32,0,0,1,7.63,7.66v10.92Z" transform="translate(-120.39 -101.47)" style="fill:#fff;stroke:#fff;stroke-miterlimit:10;stroke-width:0.75px"></path><path d="M285.82,271.93v-3.28a7.28,7.28,0,0,1-6.49,3.57c-4.87,0-8.22-3-8.22-8V253.68h1.8v10.47c0,4.13,2.55,6.34,6.49,6.3a6.32,6.32,0,0,0,6.38-6.63V253.68h1.81v18.25Z" transform="translate(-120.39 -101.47)" style="fill:#fff;stroke:#fff;stroke-miterlimit:10;stroke-width:0.75px"></path><path d="M304.84,257a7.79,7.79,0,0,0-5.68-1.91c-2.84,0-5.56,1-5.49,3.35s3.24,2.91,5.53,3.32c3.24.55,7.7,1.1,7.52,5.34-.11,4-4.28,5.09-7.48,5.09s-6.38-1.22-8-3.65l1.33-1.18a8.07,8.07,0,0,0,6.67,3.1c2.21,0,5.57-.59,5.68-3.47.07-2.61-2.95-3.13-5.93-3.61-3.54-.59-7-1.25-7.08-4.9s3.54-5.13,7.22-5.09a9.58,9.58,0,0,1,6.79,2.43Z" transform="translate(-120.39 -101.47)" style="fill:#fff;stroke:#fff;stroke-miterlimit:10;stroke-width:0.75px"></path><path d="M314.9,248.22v5.49h6.2v1.52h-6.2v11.09c0,2.47.52,4.21,3.36,4.21a6.8,6.8,0,0,0,2.8-.74l.63,1.47a7.87,7.87,0,0,1-3.43.92c-3.87,0-5.12-2.28-5.12-5.86V255.23h-3.88v-1.52h3.88v-5.3Z" transform="translate(-120.39 -101.47)" style="fill:#fff;stroke:#fff;stroke-miterlimit:10;stroke-width:0.75px"></path><path d="M342.78,253.71v18.22H341v-3.87a8.53,8.53,0,0,1-7.45,4.16,9.37,9.37,0,0,1,0-18.73A8.27,8.27,0,0,1,341,257.7v-4Zm-16.7,9.11a7.31,7.31,0,0,0,7.44,7.63c10.14,0,10.14-15.22,0-15.22A7.27,7.27,0,0,0,326.08,262.82Z" transform="translate(-120.39 -101.47)" style="fill:#fff;stroke:#fff;stroke-miterlimit:10;stroke-width:0.75px"></path><path d="M349.38,253.71l.07,3.25a6.4,6.4,0,0,1,6.05-3.43,7,7,0,0,1,3.9,1.07l-.81,1.47a5.85,5.85,0,0,0-3.09-.84,6,6,0,0,0-6,6.08v10.62h-1.81V253.71Z" transform="translate(-120.39 -101.47)" style="fill:#fff;stroke:#fff;stroke-miterlimit:10;stroke-width:0.75px"></path><path d="M379.61,246.12v25.81h-1.77v-4a8.59,8.59,0,0,1-7.6,4.31c-5.08,0-9.1-3.35-9.1-9.4s4.05-9.4,9.14-9.4a8.08,8.08,0,0,1,7.56,4.28V246.12Zm-16.7,16.7c0,5.05,3.35,7.63,7.44,7.63a7.65,7.65,0,0,0,0-15.3C366.26,255.15,362.91,257.7,362.91,262.82Z" transform="translate(-120.39 -101.47)" style="fill:#fff;stroke:#fff;stroke-miterlimit:10;stroke-width:0.75px"></path></svg>