<svg xmlns="http://www.w3.org/2000/svg" viewBox="0 0 338.58 496.84"><title>Anata_logo_small</title><path d="M226.79 428.5c-4.24 16.94-9.21 33.64-14.1 50.41-1.37 4.68-2.81 9.52-6 13.22s-8.6 6-13.06 4c-3.28-1.45-5.36-4.86-6.09-8.36s-.3-7.14.22-10.69c3.3-22.44 10.46-44 16.19-65.81a15.15 15.15 0 0 0 .41-2.68c-7.1-7.8-15.34-17.12-22.55-24.83l-5.22-5.56c-1.48-1.57-5.44-5.7-7.87-8.21 0 0-4.63 6.37-6.44 8.6a127.64 127.64 0 0 1-36.2 30.87 99.38 99.38 0 0 1-48.32 13.1 84.79 84.79 0 0 1-24-3.36c-19.58-5.76-37-19.45-45.86-37.85-6-12.53-8-26.69-7.92-40.6S2.17 312.66 8 300c7.53-16.19 21-29.17 36.49-38 9.64-5.52 21-8.11 31.93-9.84a87 87 0 0 1 48.33 5.58 94.81 94.81 0 0 1 23 14.16c3.53 2.83 7.15 5.87 10.43 9 5.35 5.06 8.24 8.15 8.8 8.61.87-2.06 1.5-3.18 2.4-5.23 6.95-16 14.31-31.74 20.77-47.9 11.7-29.25 23.28-58.57 34.1-88.15Q236.81 114 247.21 79a436.48 436.48 0 0 0 12.54-52.4c1.4-8.33 7.51-10 12.33-12C289.68 7.38 307.55.39 327 0c2.92-.06 6.43.27 8.63 1.85 1.71 1.23 2.91 4.92 2.45 7.12-2.28 11-5 21.94-7.93 32.77-4.65 16.93-9.77 33.73-14.47 50.65-5.86 21.09-11.66 42.19-17.19 63.37-4.9 18.73-9.3 37.58-14.09 56.34-5.24 20.48-10.47 41-16.09 61.34-5.3 19.21-11.25 38.25-16.64 57.44-3.85 13.69-7.32 27.49-10.75 41.3-.32 1.31-.66 3-.66 3 6.28 6.73 11.59 11.66 15.89 15.8 6.27 6 13.5 12.63 20.4 18.15 12.38 9.91 13.25 10.37 23 17.63 14 9.13 21.75 8.38 25.46 2 4.91-8.48 2.41-17.46.83-21.54-1.42-3.66 5.46 2.21 11.17 19.83 3.53 10.9.63 26.1-4.17 34.83-10.17 18.5-33.67 23.67-52.33 11.5-22.4-14.65-33.51-26.57-53.72-44.88zm16.81-214.13c-.86 2-1.56 3.51-2.36 5.37-6.65 15.38-12.89 30.94-19.92 46.13-5 10.7-10.16 21.27-15.36 31.85q-3.9 7.93-7.78 15.88c-1.65 3.4-4.26 8.46-4.26 8.46 1.35 1.44 6.17 7.41 9.38 11 5.37 6 10.15 11.2 15.23 17.51 0 0 1-5 1.29-6.56 2.16-12.08 3.87-22.29 6.14-34.35q3.69-19.66 7.42-39.31 5.33-28 10.67-56.07c.1-.48.11-.87.2-1.28-.19.35-.25.48-.65 1.37zM86.49 304.88a42.4 42.4 0 0 0-4.26.24 46.58 46.58 0 0 0-24.3 10.49 47.11 47.11 0 0 0-15.45 23 41 41 0 0 0 3.1 30.63A37.19 37.19 0 0 0 70 387.76c11.95 2.57 24.56-1.34 34.8-8A147.43 147.43 0 0 0 131.49 357a113.34 113.34 0 0 0 12-16.49l-5.88-7.29A101.79 101.79 0 0 0 123.14 319c-10.48-8.25-23.42-14.21-36.65-14.12z"/></svg>