<?xml version="1.0"?>
<svg xmlns="http://www.w3.org/2000/svg" viewBox="0 0 100 79" width="100" height="79"><path d="M12.8 58.3c-.4-.4-.9-.5-1.4-.5-.7 0-1 .2-1 .6 0 .4.3.6 1.1.6 1.1.1 2.4.3 2.4 1.8 0 1-.8 1.9-2.5 1.9-.9 0-1.8-.2-2.6-1l.7-1c.4.5 1.3.8 2 .8.5 0 1-.3 1-.7 0-.4-.3-.6-1.1-.6-1.1-.1-2.4-.5-2.4-1.8s1.4-1.8 2.4-1.8c.9 0 1.6.2 2.2.8l-.8.9zM20 56.8l1.3 4.3 1.3-4.3h1.6l-2 5.7h-1.6l-.6-1.7-.5-1.9-.5 1.9-.6 1.7h-1.6l-2-5.7h1.6l1.3 4.3 1.2-4.3H20zM26.6 60.2c.1.7.7 1.2 1.7 1.2.5 0 1.2-.2 1.5-.5l.9.9c-.6.6-1.6.9-2.5.9-2 0-3.1-1.2-3.1-3 0-1.7 1.2-3 3-3 1.9 0 3.1 1.2 2.9 3.5h-4.4zm3.1-1.2c-.1-.7-.7-1.1-1.5-1.1s-1.4.4-1.6 1.1h3.1zM33.3 60.2c.1.7.7 1.2 1.7 1.2.5 0 1.2-.2 1.5-.5l.9.9c-.6.6-1.6.9-2.5.9-2 0-3.1-1.2-3.1-3 0-1.7 1.2-3 3-3 1.9 0 3.1 1.2 2.9 3.5h-4.4zm3.1-1.2c-.1-.7-.7-1.1-1.5-1.1s-1.4.4-1.6 1.1h3.1zM40.6 55.2v1.6h1.6V58h-1.6v2.5c0 .5.3.8.7.8.2 0 .5-.1.7-.2l.4 1.2c-.4.2-.7.2-1.2.2-1.2 0-2-.7-2-2.1V58h-1.1v-1.2h1.1v-1.5l1.4-.1z" fill="#4d4a47"></path><path d="M54.2 62.5v-3.4c0-1.1-.7-1.9-1.8-1.9s-1.8.8-1.8 1.9v3.4H50v-3.4c0-1.1-.8-1.9-1.8-1.9-1.1 0-1.8.8-1.8 1.9v3.4h-.6v-5.7h.5v.9c.4-.8 1.1-1.1 1.9-1.1.9 0 1.8.4 2.1 1.4.3-.9 1.2-1.4 2.1-1.4 1.4 0 2.4 1 2.4 2.4v3.4h-.6zM60.7 62.5v-1c-.4.8-1.2 1.1-2 1.1-1.5 0-2.6-.9-2.6-2.5v-3.3h.6v3.3c0 1.3.8 2 2 2s2-.9 2-2.1v-3.2h.6v5.7h-.6zM66.7 57.8c-.6-.5-1.1-.6-1.8-.6-.9 0-1.7.3-1.7 1.1s1 .9 1.7 1c1 .2 2.4.3 2.4 1.7 0 1.3-1.3 1.6-2.3 1.6-1 0-2-.4-2.5-1.1l.4-.4c.5.7 1.3 1 2.1 1 .7 0 1.7-.2 1.8-1.1 0-.8-.9-1-1.9-1.1-1.1-.2-2.2-.4-2.2-1.5s1.1-1.6 2.3-1.6c.8 0 1.6.2 2.1.8l-.4.2zM69.9 55.1v1.7h1.9v.5h-1.9v3.5c0 .8.2 1.3 1.1 1.3.3 0 .6-.1.9-.2l.2.5c-.4.2-.7.3-1.1.3-1.2 0-1.6-.7-1.6-1.8v-3.5h-1.2v-.5h1.2v-1.7l.5-.1zM78.6 56.8v5.7H78v-1.2c-.6.9-1.4 1.3-2.3 1.3-1.6 0-2.9-1.2-2.9-3 0-1.7 1.3-2.9 2.9-2.9.9 0 1.9.4 2.3 1.3v-1.3h.6zm-5.2 2.9c0 1.4 1 2.4 2.3 2.4 3.2 0 3.2-4.8 0-4.8-1.3 0-2.3.9-2.3 2.4zM80.7 56.8v1c.4-.8 1.2-1.1 1.9-1.1.4 0 .8.1 1.2.3l-.3.5c-.3-.2-.6-.3-1-.3-1.1 0-1.9.9-1.9 1.9v3.3H80v-5.7h.7zM90.2 54.4v8.1h-.6v-1.3c-.5.9-1.4 1.4-2.4 1.4-1.6 0-2.9-1.1-2.9-3s1.3-3 2.9-3c1 0 1.9.4 2.4 1.3v-3.6h.6zm-5.3 5.3c0 1.6 1.1 2.4 2.3 2.4 1.3 0 2.3-1 2.3-2.4s-1-2.4-2.3-2.4c-1.2 0-2.3.8-2.3 2.4z" fill="#fad417" stroke="#fad417" stroke-width=".75" stroke-miterlimit="10"></path><g><path d="M52.9 17.6c-7.8 9.3-4.2 25.1-4.2 25.1s16.2.8 24-8.5 4.2-25.1 4.2-25.1-16.2-.8-24 8.5z" fill="#4d4a47"></path><linearGradient id="a" gradientUnits="userSpaceOnUse" x1="-4056.166" y1="-5106.663" x2="-4071.751" y2="-5125.628" gradientTransform="rotate(79.81 -5083.24 -78.215)"><stop offset="0" stop-color="#1a1a1a"></stop><stop offset=".163" stop-color="#232222" stop-opacity=".837"></stop><stop offset="1" stop-color="#4d4a47" stop-opacity="0"></stop></linearGradient><path d="M72.7 34.1c-7.7 9.3-23.9 8.6-23.9 8.6s-3.6-15.8 4.1-25.1S76.8 9 76.8 9s3.6 15.8-4.1 25.1z" fill="url(#a)"></path><g><linearGradient id="b" gradientUnits="userSpaceOnUse" x1="35.791" y1="25.569" x2="53.618" y2="37.011"><stop offset="0" stop-color="#fad417"></stop><stop offset=".159" stop-color="#f6d118"></stop><stop offset=".312" stop-color="#ebc81b"></stop><stop offset=".461" stop-color="#d7b821"></stop><stop offset=".609" stop-color="#bca328"></stop><stop offset=".756" stop-color="#998732"></stop><stop offset=".899" stop-color="#6f653d"></stop><stop offset="1" stop-color="#4d4a47"></stop></linearGradient><path d="M48.6 21.4c-.7-1.4-1.5-2.7-2.5-3.9-7.8-9.3-24-8.5-24-8.5s-3.6 15.8 4.2 25.1c5.5 6.5 15.1 8.1 20.3 8.4-.9-6.2-1.4-14.6 2-21.1z" fill="url(#b)"></path></g></g></svg>