<?xml version="1.0" encoding="utf-8"?>
<!-- Generator: Adobe Illustrator 17.1.0, SVG Export Plug-In . SVG Version: 6.00 Build 0)  -->
<!DOCTYPE svg PUBLIC "-//W3C//DTD SVG 1.1//EN" "http://www.w3.org/Graphics/SVG/1.1/DTD/svg11.dtd">
<svg version="1.1" id="Layer_2" xmlns="http://www.w3.org/2000/svg" xmlns:xlink="http://www.w3.org/1999/xlink" x="0px" y="0px"
	 viewBox="0 0 85 80.8" enable-background="new 0 0 85 80.8" xml:space="preserve">
<g>
	<g>
		<path fill="#FDFFFE" d="M27.5,8.5c0.5-2.9,3.9-5.7,7.1-5.6C33.8,6.3,30.2,8.3,27.5,8.5z"/>
		<path fill="#FDFFFE" d="M21.5,12.6c2.8-2.2,8.3-2.3,10.9-0.3C29.7,14.2,23.9,14.4,21.5,12.6z"/>
		<path fill="#FDFFFE" d="M16.3,18.1c2.3-2.7,7.7-3.8,10.7-2.3C24.7,18.1,19,19.4,16.3,18.1z"/>
		<path fill="#FDFFFE" d="M19.7,20.4c-1.4,3.3-6.3,5.9-9.5,5.4C11.7,22.8,16,19.9,19.7,20.4z"/>
		<path fill="#FDFFFE" d="M10.4,14.8C8.2,17.5,8,23,10,25.7C11.9,23,12.1,17.1,10.4,14.8z"/>
		<path fill="#FDFFFE" d="M17.4,7.7c-2.3,2.5-2.9,7.7-1.2,10.4C18.2,15.6,18.8,10.1,17.4,7.7z"/>
		<path fill="#FDFFFE" d="M26.2,3c-3.1,1.5-5.6,6.4-4.9,9.6C24.1,10.9,26.8,5.8,26.2,3z"/>
		<path fill="#FDFFFE" d="M15.9,26.8c-0.4,3.8-4.5,8.1-8,8.6C8.5,31.9,12.1,27.3,15.9,26.8z"/>
		<path fill="#FDFFFE" d="M4.7,24.3c-1.4,3.5,0.2,9,3,11C8.7,32,7.1,26.1,4.7,24.3z"/>
		<path fill="#FDFFFE" d="M13.1,34.5c0.8,4-2,9.8-5.4,11.4C7.2,42.1,9.3,36.8,13.1,34.5z"/>
		<path fill="#FDFFFE" d="M13.2,43.2c1.8,3.9,0.5,10.3-2.6,12.8C9.2,52.4,10.3,45.8,13.2,43.2z"/>
		<path fill="#FDFFFE" d="M14.7,51.9c2.8,3.2,3.2,9.7,1,12.9C13.4,61.7,12.5,56.3,14.7,51.9z"/>
		<path fill="#FDFFFE" d="M18.6,60.9c3.3,2,5.5,7.5,4.4,10.9C20.1,69.8,17.9,65.2,18.6,60.9z"/>
		<path fill="#FDFFFE" d="M32.2,71c3.9,0.4,8.2,4.5,8.7,8C37.5,78.4,33,74.8,32.2,71z"/>
		<path fill="#FDFFFE" d="M25.4,67.6c3.3,1.3,6.1,5.9,5.6,9.1C28.2,75.3,25.4,71.6,25.4,67.6z"/>
		<path fill="#FDFFFE" d="M2,35.1C1.3,39,4.1,44.4,7.4,45.9C7.8,42.3,4.9,36.5,2,35.1z"/>
		<path fill="#FDFFFE" d="M0.3,46.5c0.8,4.5,5.9,9.3,10.1,9.6C9.4,52.1,4,46.9,0.3,46.5z"/>
		<path fill="#FDFFFE" d="M10.8,69.9c2.8,2.9,8.8,3.9,12.1,2.1C20.1,69.5,13.7,68.4,10.8,69.9z"/>
		<path fill="#FDFFFE" d="M29.2,82.8c3.8,1.3,9.6-0.6,11.7-3.6C37.3,78.2,31.1,80.1,29.2,82.8z"/>
		<path fill="#FDFFFE" d="M3.7,58.8c1.9,3.9,7.9,7,11.8,6.2C13.5,61.5,7.2,58.2,3.7,58.8z"/>
		<path fill="#FDFFFE" d="M19,77.8c3.3,2.1,9.4,1.6,12-0.9C27.9,75.2,21.4,75.6,19,77.8z"/>
	</g>
	<g>
		<path fill="#FDFFFE" d="M57.5,8.5c-0.5-2.9-3.9-5.7-7.1-5.6C51.2,6.3,54.8,8.3,57.5,8.5z"/>
		<path fill="#FDFFFE" d="M63.5,12.6c-2.8-2.2-8.3-2.3-10.9-0.3C55.3,14.2,61.1,14.4,63.5,12.6z"/>
		<path fill="#FDFFFE" d="M68.7,18.1c-2.3-2.7-7.7-3.8-10.7-2.3C60.3,18.1,66,19.4,68.7,18.1z"/>
		<path fill="#FDFFFE" d="M65.3,20.4c1.4,3.3,6.2,5.9,9.5,5.4C73.3,22.8,69,19.9,65.3,20.4z"/>
		<path fill="#FDFFFE" d="M74.6,14.8C76.8,17.5,77,23,75,25.7C73.1,23,72.9,17.1,74.6,14.8z"/>
		<path fill="#FDFFFE" d="M67.6,7.7c2.3,2.5,2.9,7.7,1.2,10.4C66.8,15.6,66.2,10.1,67.6,7.7z"/>
		<path fill="#FDFFFE" d="M58.8,3c3.1,1.5,5.6,6.4,4.9,9.6C60.9,10.9,58.2,5.8,58.8,3z"/>
		<path fill="#FDFFFE" d="M69.1,26.8c0.4,3.8,4.5,8.1,8,8.6C76.5,31.9,72.9,27.3,69.1,26.8z"/>
		<path fill="#FDFFFE" d="M80.3,24.3c1.4,3.5-0.2,9-3,11C76.3,32,77.9,26.1,80.3,24.3z"/>
		<path fill="#FDFFFE" d="M71.9,34.5c-0.8,4,2,9.8,5.4,11.4C77.8,42.1,75.7,36.8,71.9,34.5z"/>
		<path fill="#FDFFFE" d="M71.8,43.2C70,47.1,71.4,53.5,74.4,56C75.8,52.4,74.7,45.8,71.8,43.2z"/>
		<path fill="#FDFFFE" d="M70.3,51.9c-2.8,3.2-3.2,9.7-1,12.9C71.6,61.7,72.5,56.3,70.3,51.9z"/>
		<path fill="#FDFFFE" d="M66.4,60.9c-3.3,2-5.5,7.5-4.4,10.9C64.9,69.8,67.1,65.2,66.4,60.9z"/>
		<path fill="#FDFFFE" d="M52.8,71c-3.9,0.4-8.2,4.5-8.7,8C47.5,78.4,52,74.8,52.8,71z"/>
		<path fill="#FDFFFE" d="M59.6,67.6c-3.3,1.3-6.1,5.9-5.6,9.1C56.8,75.3,59.6,71.6,59.6,67.6z"/>
		<path fill="#FDFFFE" d="M83,35.1c0.7,3.9-2.1,9.3-5.5,10.8C77.2,42.3,80.1,36.5,83,35.1z"/>
		<path fill="#FDFFFE" d="M84.7,46.5c-0.8,4.5-5.9,9.3-10.1,9.6C75.6,52.1,81,46.9,84.7,46.5z"/>
		<path fill="#FDFFFE" d="M74.2,69.9c-2.8,2.9-8.8,3.9-12.1,2.1C64.9,69.5,71.3,68.4,74.2,69.9z"/>
		<path fill="#FDFFFE" d="M55.8,82.8c-3.8,1.3-9.6-0.6-11.7-3.6C47.7,78.2,53.9,80.1,55.8,82.8z"/>
		<path fill="#FDFFFE" d="M81.3,58.8c-1.9,3.9-7.9,7-11.8,6.2C71.5,61.5,77.8,58.2,81.3,58.8z"/>
		<path fill="#FDFFFE" d="M66,77.8c-3.3,2.1-9.4,1.6-12-0.9C57.1,75.2,63.6,75.6,66,77.8z"/>
	</g>
</g>
</svg>
